HIERARCHY
ROOT newVegas:Hips
{
	OFFSET 0.000000 96.479958 0.000000
	CHANNELS 6 Xposition Yposition Zposition Xrotation Yrotation Zrotation
	JOINT newVegas:Pelvis
	{
		OFFSET 0.000000 0.000000 0.000000
		CHANNELS 3 Xrotation Yrotation Zrotation
		JOINT newVegas:LeftUpLeg
		{
			OFFSET 18.735201 -5.666702 -4.541200
			CHANNELS 3 Xrotation Yrotation Zrotation
			JOINT newVegas:LeftLeg
			{
				OFFSET -0.021200 -31.938179 0.493100
				CHANNELS 3 Xrotation Yrotation Zrotation
				JOINT newVegas:LeftFoot
				{
					OFFSET 0.021200 -31.938179 -4.336299
					CHANNELS 3 Xrotation Yrotation Zrotation
					JOINT newVegas:LeftToeBase
					{
						OFFSET 0.943001 -26.722000 15.023500
						CHANNELS 3 Xrotation Yrotation Zrotation
						End Site
						{
							OFFSET 0.000000 30.670183 0.000000
						}
					}
				}
				JOINT newVegas:Left_PantLeg
				{
					OFFSET 0.663870 -9.044666 -1.108900
					CHANNELS 3 Xrotation Yrotation Zrotation
					End Site
					{
						OFFSET 1.415995 20.635357 0.000000
					}
				}
			}
		}
		JOINT newVegas:RightUpLeg
		{
			OFFSET -18.735201 -5.666702 -4.541200
			CHANNELS 3 Xrotation Yrotation Zrotation
			JOINT newVegas:RightLeg
			{
				OFFSET 0.018946 -31.938133 0.493100
				CHANNELS 3 Xrotation Yrotation Zrotation
				JOINT newVegas:RightFoot
				{
					OFFSET -0.018946 -31.938126 -4.336299
					CHANNELS 3 Xrotation Yrotation Zrotation
					JOINT newVegas:RightToeBase
					{
						OFFSET -0.943001 -26.722004 15.023500
						CHANNELS 3 Xrotation Yrotation Zrotation
						End Site
						{
							OFFSET 0.000000 30.670187 0.000000
						}
					}
				}
				JOINT newVegas:Right_PantLeg
				{
					OFFSET -0.661674 -9.044716 -1.108900
					CHANNELS 3 Xrotation Yrotation Zrotation
					End Site
					{
						OFFSET -1.415958 20.635269 0.000000
					}
				}
			}
		}
	}
	JOINT newVegas:Spine
	{
		OFFSET 0.000000 10.199997 -0.299500
		CHANNELS 3 Xrotation Yrotation Zrotation
		JOINT newVegas:Spine1
		{
			OFFSET 0.000000 11.900002 -1.516600
			CHANNELS 3 Xrotation Yrotation Zrotation
			JOINT newVegas:Spine2
			{
				OFFSET 0.000000 13.600006 -2.842500
				CHANNELS 3 Xrotation Yrotation Zrotation
				JOINT newVegas:Neck
				{
					OFFSET 0.000000 9.624100 -2.890100
					CHANNELS 3 Xrotation Yrotation Zrotation
					JOINT newVegas:Head
					{
						OFFSET 0.000000 14.068802 -1.351900
						CHANNELS 3 Xrotation Yrotation Zrotation
						JOINT newVegas:Hair_Back
						{
							OFFSET 0.000000 3.231903 -17.524799
							CHANNELS 3 Xrotation Yrotation Zrotation
							End Site
							{
								OFFSET 0.000000 19.849884 0.000000
							}
						}
						JOINT newVegas:Hair_Front
						{
							OFFSET 0.000000 31.260406 4.573800
							CHANNELS 3 Xrotation Yrotation Zrotation
							JOINT newVegas:Hair_Front1
							{
								OFFSET 0.000000 2.284103 11.993300
								CHANNELS 3 Xrotation Yrotation Zrotation
								JOINT newVegas:Hair_Front2
								{
									OFFSET 0.000000 2.284103 11.993300
									CHANNELS 3 Xrotation Yrotation Zrotation
									End Site
									{
										OFFSET 0.000000 12.208862 0.000000
									}
								}
							}
						}
						JOINT newVegas:Jowel
						{
							OFFSET 0.000000 -7.458206 6.864100
							CHANNELS 3 Xrotation Yrotation Zrotation
							End Site
							{
								OFFSET 0.000000 19.849884 0.000000
							}
						}
					}
				}
				JOINT newVegas:LeftShoulder
				{
					OFFSET 15.263000 10.923401 -0.547700
					CHANNELS 3 Xrotation Yrotation Zrotation
					JOINT newVegas:LeftArm
					{
						OFFSET 25.438599 -2.830597 -13.032500
						CHANNELS 3 Xrotation Yrotation Zrotation
						JOINT newVegas:LeftForeArm
						{
							OFFSET 29.960503 0.000000 0.000000
							CHANNELS 3 Xrotation Yrotation Zrotation
							JOINT newVegas:LeftHand
							{
								OFFSET 27.849251 0.000000 0.000000
								CHANNELS 3 Xrotation Yrotation Zrotation
								JOINT newVegas:LeftHandThumb1
								{
									OFFSET 4.487587 -3.305161 6.305391
									CHANNELS 3 Xrotation Yrotation Zrotation
									JOINT newVegas:LeftHandThumb2
									{
										OFFSET 5.480453 -3.164139 3.164143
										CHANNELS 3 Xrotation Yrotation Zrotation
										JOINT newVegas:LeftHandThumb3
										{
											OFFSET 5.159721 -2.978973 2.978967
											CHANNELS 3 Xrotation Yrotation Zrotation
											End Site
											{
												OFFSET 2.494507 5.926697 1.738678
											}
										}
									}
								}
								JOINT newVegas:LeftHandIndex1
								{
									OFFSET 18.578728 -0.527832 5.208049
									CHANNELS 3 Xrotation Yrotation Zrotation
									JOINT newVegas:LeftHandIndex2
									{
										OFFSET 3.192009 0.000000 0.000000
										CHANNELS 3 Xrotation Yrotation Zrotation
										JOINT newVegas:LeftHandIndex3
										{
											OFFSET 3.835129 0.000000 0.000000
											CHANNELS 3 Xrotation Yrotation Zrotation
											End Site
											{
												OFFSET -0.034599 3.816971 0.371180
											}
										}
									}
								}
								JOINT newVegas:LeftHandMiddle1
								{
									OFFSET 18.476105 0.000000 0.000000
									CHANNELS 3 Xrotation Yrotation Zrotation
									JOINT newVegas:LeftHandMiddle2
									{
										OFFSET 3.324875 0.000000 0.000000
										CHANNELS 3 Xrotation Yrotation Zrotation
										JOINT newVegas:LeftHandMiddle3
										{
											OFFSET 4.596550 0.000000 0.000000
											CHANNELS 3 Xrotation Yrotation Zrotation
											End Site
											{
												OFFSET 0.057701 4.578827 0.399218
											}
										}
									}
								}
								JOINT newVegas:LeftHandRing1
								{
									OFFSET 17.732719 0.121887 -4.201567
									CHANNELS 3 Xrotation Yrotation Zrotation
									JOINT newVegas:LeftHandRing2
									{
										OFFSET 2.733170 0.000000 0.000000
										CHANNELS 3 Xrotation Yrotation Zrotation
										JOINT newVegas:LeftHandRing3
										{
											OFFSET 3.178268 0.000000 0.000000
											CHANNELS 3 Xrotation Yrotation Zrotation
											End Site
											{
												OFFSET 0.119102 3.170624 0.185394
											}
										}
									}
								}
								JOINT newVegas:LeftHandPinky1
								{
									OFFSET 15.989624 -0.606689 -7.535461
									CHANNELS 3 Xrotation Yrotation Zrotation
									JOINT newVegas:LeftHandPinky2
									{
										OFFSET 2.538986 0.000000 0.000000
										CHANNELS 3 Xrotation Yrotation Zrotation
										JOINT newVegas:LeftHandPinky3
										{
											OFFSET 2.593102 0.000000 0.000000
											CHANNELS 3 Xrotation Yrotation Zrotation
											End Site
											{
												OFFSET -0.150902 2.584198 0.152708
											}
										}
									}
								}
							}
							JOINT newVegas:Left_Sleeve
							{
								OFFSET 0.267448 -0.649796 0.577675
								CHANNELS 3 Xrotation Yrotation Zrotation
								End Site
								{
									OFFSET 0.000000 15.991241 0.000000
								}
							}
							JOINT newVegas:Left_CapeC
							{
								OFFSET 15.715958 -8.608795 -6.935905
								CHANNELS 3 Xrotation Yrotation Zrotation
								JOINT newVegas:Left_CapeC1
								{
									OFFSET 0.000000 -8.688499 0.000000
									CHANNELS 3 Xrotation Yrotation Zrotation
									End Site
									{
										OFFSET 0.000000 8.688499 0.000000
									}
								}
							}
						}
						JOINT newVegas:Left_CapeB
						{
							OFFSET 26.118385 -8.608795 -7.079235
							CHANNELS 3 Xrotation Yrotation Zrotation
							JOINT newVegas:Left_CapeB1
							{
								OFFSET 0.000000 -8.688499 0.000000
								CHANNELS 3 Xrotation Yrotation Zrotation
								End Site
								{
									OFFSET 0.000000 8.688499 0.000000
								}
							}
						}
						JOINT newVegas:Left_CapeA
						{
							OFFSET 5.115639 -8.608795 -10.395809
							CHANNELS 3 Xrotation Yrotation Zrotation
							JOINT newVegas:Left_CapeA1
							{
								OFFSET 0.000000 -8.688499 0.000000
								CHANNELS 3 Xrotation Yrotation Zrotation
								End Site
								{
									OFFSET 0.000000 8.688499 0.000000
								}
							}
						}
					}
				}
				JOINT newVegas:RightShoulder
				{
					OFFSET -15.263000 10.923401 -0.547700
					CHANNELS 3 Xrotation Yrotation Zrotation
					JOINT newVegas:RightArm
					{
						OFFSET -25.438599 -2.830597 -13.032500
						CHANNELS 3 Xrotation Yrotation Zrotation
						JOINT newVegas:RightForeArm
						{
							OFFSET -29.960503 0.000000 0.000000
							CHANNELS 3 Xrotation Yrotation Zrotation
							JOINT newVegas:RightHand
							{
								OFFSET -27.849251 0.000000 0.000000
								CHANNELS 3 Xrotation Yrotation Zrotation
								JOINT newVegas:RightHandThumb1
								{
									OFFSET -4.487587 -3.305161 6.305391
									CHANNELS 3 Xrotation Yrotation Zrotation
									JOINT newVegas:RightHandThumb2
									{
										OFFSET -5.480453 -3.164139 3.164143
										CHANNELS 3 Xrotation Yrotation Zrotation
										JOINT newVegas:RightHandThumb3
										{
											OFFSET -5.159721 -2.978973 2.978967
											CHANNELS 3 Xrotation Yrotation Zrotation
											End Site
											{
												OFFSET -2.494507 5.926697 1.738678
											}
										}
									}
								}
								JOINT newVegas:RightHandIndex1
								{
									OFFSET -18.578728 -0.527832 5.208049
									CHANNELS 3 Xrotation Yrotation Zrotation
									JOINT newVegas:RightHandIndex2
									{
										OFFSET -3.192009 0.000000 0.000000
										CHANNELS 3 Xrotation Yrotation Zrotation
										JOINT newVegas:RightHandIndex3
										{
											OFFSET -3.835129 0.000000 0.000000
											CHANNELS 3 Xrotation Yrotation Zrotation
											End Site
											{
												OFFSET 0.034599 3.816971 0.371180
											}
										}
									}
								}
								JOINT newVegas:RightHandMiddle1
								{
									OFFSET -18.476105 0.000000 0.000000
									CHANNELS 3 Xrotation Yrotation Zrotation
									JOINT newVegas:RightHandMiddle2
									{
										OFFSET -3.324875 0.000000 0.000000
										CHANNELS 3 Xrotation Yrotation Zrotation
										JOINT newVegas:RightHandMiddle3
										{
											OFFSET -4.596550 0.000000 0.000000
											CHANNELS 3 Xrotation Yrotation Zrotation
											End Site
											{
												OFFSET -0.057701 4.578827 0.399218
											}
										}
									}
								}
								JOINT newVegas:RightHandRing1
								{
									OFFSET -17.732719 0.121887 -4.201567
									CHANNELS 3 Xrotation Yrotation Zrotation
									JOINT newVegas:RightHandRing2
									{
										OFFSET -2.733170 0.000000 0.000000
										CHANNELS 3 Xrotation Yrotation Zrotation
										JOINT newVegas:RightHandRing3
										{
											OFFSET -3.178268 0.000000 0.000000
											CHANNELS 3 Xrotation Yrotation Zrotation
											End Site
											{
												OFFSET -0.119102 3.170624 0.185394
											}
										}
									}
								}
								JOINT newVegas:RightHandPinky1
								{
									OFFSET -15.989624 -0.606689 -7.535461
									CHANNELS 3 Xrotation Yrotation Zrotation
									JOINT newVegas:RightHandPinky2
									{
										OFFSET -2.538986 0.000000 0.000000
										CHANNELS 3 Xrotation Yrotation Zrotation
										JOINT newVegas:RightHandPinky3
										{
											OFFSET -2.593102 0.000000 0.000000
											CHANNELS 3 Xrotation Yrotation Zrotation
											End Site
											{
												OFFSET 0.150902 2.584198 0.152708
											}
										}
									}
								}
							}
							JOINT newVegas:Right_CapeC
							{
								OFFSET -15.715958 -8.608795 -6.935905
								CHANNELS 3 Xrotation Yrotation Zrotation
								JOINT newVegas:Right_CapeC1
								{
									OFFSET 0.000000 -8.688499 0.000000
									CHANNELS 3 Xrotation Yrotation Zrotation
									End Site
									{
										OFFSET 0.000000 8.688499 0.000000
									}
								}
							}
							JOINT newVegas:Right_Sleeve
							{
								OFFSET -0.267448 -0.649994 0.577675
								CHANNELS 3 Xrotation Yrotation Zrotation
								End Site
								{
									OFFSET 0.000000 15.991302 0.000000
								}
							}
						}
						JOINT newVegas:Right_CapeA
						{
							OFFSET -5.115540 -8.608795 -10.395824
							CHANNELS 3 Xrotation Yrotation Zrotation
							JOINT newVegas:Right_CapeA1
							{
								OFFSET 0.000000 -8.688499 0.000000
								CHANNELS 3 Xrotation Yrotation Zrotation
								End Site
								{
									OFFSET 0.000000 8.688499 0.000000
								}
							}
						}
						JOINT newVegas:Right_CapeB
						{
							OFFSET -26.118187 -8.608795 -7.079266
							CHANNELS 3 Xrotation Yrotation Zrotation
							JOINT newVegas:Right_CapeB1
							{
								OFFSET 0.000000 -8.688499 0.000000
								CHANNELS 3 Xrotation Yrotation Zrotation
								End Site
								{
									OFFSET 0.000000 8.688499 0.000000
								}
							}
						}
					}
				}
				JOINT newVegas:Left_Collar
				{
					OFFSET 18.625099 8.655502 8.828100
					CHANNELS 3 Xrotation Yrotation Zrotation
					JOINT newVegas:Left_Collar1
					{
						OFFSET 14.783401 10.540405 -1.259500
						CHANNELS 3 Xrotation Yrotation Zrotation
						End Site
						{
							OFFSET 0.000000 18.199875 0.000000
						}
					}
				}
				JOINT newVegas:Collar_Back
				{
					OFFSET 0.000000 15.630707 -20.132601
					CHANNELS 3 Xrotation Yrotation Zrotation
					End Site
					{
						OFFSET 0.000000 22.523010 0.000000
					}
				}
				JOINT newVegas:Left_Peck
				{
					OFFSET 17.239599 -5.132599 25.482599
					CHANNELS 3 Xrotation Yrotation Zrotation
					End Site
					{
						OFFSET 0.000000 22.523010 0.000000
					}
				}
				JOINT newVegas:Right_Peck
				{
					OFFSET -17.239599 -5.132202 25.482599
					CHANNELS 3 Xrotation Yrotation Zrotation
					End Site
					{
						OFFSET 0.000000 22.523010 0.000000
					}
				}
				JOINT newVegas:Right_Collar
				{
					OFFSET -18.625099 8.655792 8.828100
					CHANNELS 3 Xrotation Yrotation Zrotation
					JOINT newVegas:Right_Collar1
					{
						OFFSET -14.783401 10.539993 -1.259500
						CHANNELS 3 Xrotation Yrotation Zrotation
						End Site
						{
							OFFSET 0.000000 18.199631 0.000000
						}
					}
				}
			}
		}
		JOINT newVegas:Belly
		{
			OFFSET 0.000000 -6.540398 9.014299
			CHANNELS 3 Xrotation Yrotation Zrotation
			End Site
			{
				OFFSET 0.000000 11.566666 0.000000
			}
		}
	}
	JOINT newVegas:ElvisFacialAnim_Joint
	{
		OFFSET 1.000000 -95.330101 -8.825800
		CHANNELS 3 Xrotation Yrotation Zrotation
		End Site
		{
			OFFSET 0.000000 35.315800 0.000000
		}
	}
}
MOTION
Frames: 4
Frame Time: 0.033333
0.215712 96.126228 6.605356 -2.086370 -1.565869 -0.333018 0.000000 -0.000000 -0.000000 -4.728575 5.151877 1.041544 10.456514 -4.549766 0.293832 -3.615555 0.019215 -0.149017 0.000000 -0.000000 -0.000000 0.000000 -0.000000 0.000000 -3.633606 -7.812921 -1.016975 8.450718 5.579158 -1.486822 -2.661660 -0.105077 1.841631 0.000000 -0.000000 -0.000000 0.000000 -0.000000 -0.000000 0.159265 -0.290035 -0.640253 0.319068 -0.600126 -0.680029 0.318368 -0.600718 -0.679969 1.255019 0.173764 1.740544 1.255018 0.173765 1.740544 -0.000000 -0.000000 -0.000000 1.255012 0.173767 1.740544 1.254841 0.173756 1.740547 0.000000 -0.000000 0.000000 -0.000000 -0.000000 -0.000000 1.004032 -3.515166 -12.017498 20.409864 -39.421577 -54.687914 0.000002 -16.874513 -0.000002 -22.241522 6.892750 11.333253 -2.433225 9.400862 11.690248 2.454545 25.559166 -1.628872 -0.000002 0.000000 -0.000003 0.391175 2.291949 -19.368813 0.391188 2.291952 -19.368827 -0.000002 0.000001 0.000001 0.838710 3.298395 -28.526012 0.840548 3.301788 -28.558076 -0.000003 -0.000000 -0.000003 1.452771 4.235174 -37.852338 1.452788 4.235177 -37.852359 -0.000003 -0.000004 -0.000006 4.914691 7.753335 -44.911776 2.048422 0.816367 -45.470516 -0.000002 0.000000 -0.000001 0.000002 0.000001 0.000000 0.000002 0.000001 0.000000 0.000001 0.000001 0.000000 -0.000004 0.000000 -0.000002 -0.000004 0.000000 -0.000001 -0.000004 0.000000 -0.000002 -0.000005 0.000001 -0.000002 0.217983 -5.868151 12.062256 -65.255033 11.144681 63.340367 0.000079 73.618374 -0.000041 0.765918 13.561733 -38.677818 -2.593184 -7.237928 -12.341068 3.435523 -18.556755 -6.247023 0.000000 -0.000005 -0.000003 0.117179 -1.273736 10.512500 0.117180 -1.273738 10.512471 0.000000 -0.000001 -0.000001 0.117175 -1.273737 10.512499 0.117196 -1.273741 10.512469 -0.000003 0.000001 0.000001 0.117184 -1.273732 10.512500 0.117181 -1.273740 10.512469 0.000002 -0.000001 0.000000 0.117177 -1.273747 10.512482 0.117186 -1.273735 10.512484 0.000002 0.000003 0.000001 0.000000 0.000003 0.000001 0.000001 -0.000001 0.000001 0.000000 0.000003 0.000001 0.000002 0.000001 0.000003 0.000001 0.000002 0.000003 0.000002 0.000001 0.000003 0.000002 0.000002 0.000003 0.000000 0.000000 0.000000 0.000000 0.000000 0.000000 0.000000 0.000000 0.000000 0.000000 0.000000 0.000000 0.000000 0.000000 0.000000 0.000000 0.000000 0.000000 0.000000 0.000000 0.000000 0.000000 -0.000000 -0.000000 0.000000 -0.000000 -0.000000 
0.101134 96.134224 6.490359 -2.071045 -2.153249 -0.317244 0.000000 -0.000000 0.000000 -4.558414 5.579441 1.026247 10.215418 -4.395677 0.466319 -3.555156 0.035259 -0.324428 0.000000 -0.000000 0.000000 -0.000000 0.000000 0.000000 -3.985912 -7.263848 -1.056214 8.584137 5.652843 -1.291342 -2.496408 -0.095696 1.713281 -0.000000 -0.000000 0.000000 0.000000 -0.000000 -0.000001 0.167940 -0.195220 -0.564363 0.336191 -0.406800 -0.630295 0.335795 -0.407318 -0.630254 1.263165 0.185103 1.779878 1.263172 0.185103 1.779878 -0.000000 -0.000000 -0.000000 1.263022 0.185106 1.779878 1.263312 0.185096 1.779879 -0.000000 -0.000000 -0.000000 -0.000000 -0.000000 -0.000000 1.004934 -3.372695 -12.015856 20.957705 -39.165025 -54.631654 -0.000000 -16.107642 0.000015 -21.697057 8.008126 10.909462 -2.433216 9.400863 11.690248 2.454545 25.559166 -1.628880 0.000002 -0.000003 -0.000001 0.391175 2.291947 -19.368810 0.391191 2.291953 -19.368828 -0.000006 -0.000001 -0.000002 0.838709 3.298394 -28.526014 0.840545 3.301787 -28.558074 0.000001 0.000000 0.000002 1.452771 4.235173 -37.852341 1.452786 4.235175 -37.852355 0.000001 0.000001 0.000000 4.914686 7.753329 -44.911779 2.048423 0.816362 -45.470516 0.000001 -0.000005 -0.000000 -0.000002 -0.000001 0.000001 -0.000002 -0.000001 0.000001 -0.000003 -0.000001 0.000001 -0.000002 0.000001 -0.000000 -0.000002 0.000000 0.000000 -0.000002 0.000001 -0.000000 -0.000003 0.000000 -0.000001 0.205869 -5.914865 12.063207 -64.124295 12.535438 63.984037 0.000147 78.435761 -0.000147 6.567279 11.952087 -33.225247 -2.596348 -7.266561 -12.345902 3.435119 -18.585102 -6.249647 0.000002 -0.000005 0.000000 0.117199 -1.273742 10.512461 0.117198 -1.273737 10.512473 -0.000005 0.000001 -0.000002 0.117202 -1.273742 10.512452 0.117185 -1.273726 10.512483 -0.000002 0.000001 0.000002 0.117194 -1.273730 10.512451 0.117197 -1.273737 10.512476 -0.000000 0.000001 0.000000 0.117204 -1.273742 10.512453 0.117191 -1.273729 10.512483 -0.000002 -0.000000 -0.000001 0.000001 -0.000001 0.000002 0.000001 -0.000001 0.000001 0.000001 -0.000001 0.000002 0.000001 0.000000 -0.000000 0.000000 0.000001 -0.000000 0.000001 0.000000 -0.000000 0.000001 0.000001 -0.000000 -0.000000 -0.000000 0.000000 -0.000000 -0.000000 0.000000 -0.000000 -0.000000 0.000000 -0.000000 -0.000000 0.000000 -0.000000 -0.000000 0.000000 -0.000000 -0.000000 0.000000 -0.000000 -0.000000 0.000000 0.000000 0.000000 0.000000 0.000000 -0.000000 0.000000 
-0.011576 96.142578 6.371678 -2.014597 -2.400646 -0.315916 0.000000 0.000000 0.000000 -4.552622 5.900767 1.055716 10.017171 -4.471502 0.615552 -3.436703 0.049589 -0.485761 -0.000000 0.000000 0.000000 0.000000 0.000000 0.000000 -4.149023 -6.774179 -1.005336 8.474183 5.458246 -1.169342 -2.318202 -0.090047 1.638438 0.000000 -0.000000 0.000000 -0.000000 0.000000 -0.000000 0.166451 -0.138828 -0.520648 0.332736 -0.291308 -0.596874 0.332481 -0.291767 -0.596846 1.297833 0.171294 1.831702 1.297835 0.171294 1.831701 0.000000 -0.000000 -0.000000 1.297830 0.171293 1.831701 1.297902 0.171293 1.831704 0.000001 0.000000 -0.000001 0.000000 -0.000000 -0.000000 1.016827 -3.285680 -12.014819 21.228892 -38.618139 -54.861326 -0.000001 -15.743149 -0.000010 -21.920515 9.036598 10.903168 -2.433216 9.400863 11.690249 2.454542 25.559164 -1.628878 -0.000001 -0.000005 -0.000003 0.391178 2.291947 -19.368811 0.391188 2.291953 -19.368828 -0.000002 0.000001 0.000001 0.838710 3.298397 -28.526012 0.840552 3.301788 -28.558076 0.000001 0.000001 0.000001 1.452770 4.235175 -37.852341 1.452779 4.235177 -37.852352 0.000001 -0.000000 -0.000002 4.914689 7.753334 -44.911776 2.048425 0.816366 -45.470516 -0.000001 -0.000003 0.000000 0.000001 0.000000 -0.000000 0.000001 0.000000 -0.000000 -0.000000 0.000000 -0.000000 -0.000002 0.000000 0.000001 -0.000001 0.000000 0.000000 -0.000002 0.000000 0.000001 -0.000003 -0.000000 0.000001 0.212580 -5.916689 12.063268 -63.254109 13.507363 63.981435 -0.000154 83.325296 0.000143 13.129761 12.123652 -22.495218 -2.596119 -7.264278 -12.345534 3.435185 -18.582793 -6.249413 0.000000 0.000002 0.000001 0.117169 -1.273743 10.512436 0.117198 -1.273751 10.512452 -0.000001 -0.000001 0.000000 0.117175 -1.273750 10.512425 0.117189 -1.273739 10.512457 -0.000005 -0.000001 0.000001 0.117187 -1.273748 10.512436 0.117196 -1.273741 10.512457 -0.000000 0.000002 0.000001 0.117179 -1.273751 10.512435 0.117192 -1.273742 10.512459 -0.000001 -0.000000 0.000002 0.000000 -0.000002 0.000001 0.000001 -0.000000 -0.000001 0.000000 -0.000002 0.000001 -0.000001 0.000001 0.000002 -0.000001 0.000002 0.000002 -0.000001 0.000001 0.000002 -0.000001 0.000002 0.000002 -0.000000 -0.000000 -0.000000 -0.000000 -0.000000 -0.000000 -0.000000 -0.000000 -0.000000 -0.000000 -0.000000 -0.000000 -0.000000 -0.000000 -0.000000 -0.000000 -0.000000 -0.000000 -0.000000 -0.000000 -0.000000 0.000000 0.000000 0.000000 0.000000 0.000000 0.000000 
-0.149541 96.143311 6.266222 -1.995290 -2.349794 -0.312175 -0.000000 -0.000000 -0.000000 -4.630521 6.052872 1.169717 9.919068 -4.692296 0.659056 -3.322241 0.062030 -0.618951 0.000000 -0.000000 0.000000 0.000000 -0.000000 0.000000 -4.199085 -6.401711 -0.921530 8.432745 5.092969 -1.072833 -2.282922 -0.087823 1.563598 -0.000000 -0.000000 -0.000000 0.000000 -0.000000 -0.000000 0.190911 -0.141821 -0.511839 0.381077 -0.295117 -0.613803 0.380838 -0.295581 -0.613776 1.300864 0.141170 1.900151 1.300864 0.141170 1.900151 -0.000000 -0.000000 -0.000000 1.300818 0.141181 1.900149 1.300930 0.141147 1.900157 -0.000001 0.000000 0.000000 -0.000000 -0.000000 0.000000 1.034639 -3.280625 -12.014654 21.406373 -37.863044 -55.229845 0.000008 -15.900238 0.000016 -22.427508 9.684560 10.996368 -2.433220 9.400861 11.690250 2.454539 25.559169 -1.628880 0.000000 0.000002 0.000001 0.391172 2.291948 -19.368810 0.391189 2.291952 -19.368825 0.000002 0.000001 0.000000 0.838713 3.298393 -28.526014 0.840542 3.301787 -28.558080 -0.000000 -0.000004 -0.000005 1.452769 4.235172 -37.852345 1.452785 4.235177 -37.852359 0.000002 -0.000002 0.000002 4.914692 7.753337 -44.911776 2.048426 0.816367 -45.470516 -0.000001 -0.000003 -0.000001 -0.000003 -0.000001 0.000000 -0.000003 -0.000001 0.000000 -0.000003 -0.000000 0.000000 0.000001 -0.000002 -0.000000 0.000001 -0.000002 0.000000 0.000001 -0.000002 -0.000000 -0.000001 -0.000002 -0.000000 0.222616 -5.915056 12.063274 -60.237699 18.248235 63.516900 -0.000324 88.001865 0.000355 16.810149 16.359860 -16.061808 -2.596058 -7.263794 -12.345440 3.435175 -18.582325 -6.249377 -0.000000 -0.000001 0.000001 0.117196 -1.273796 10.512970 0.117194 -1.273796 10.512953 0.000000 0.000001 -0.000001 0.117200 -1.273799 10.512954 0.117201 -1.273783 10.512973 0.000001 0.000000 -0.000000 0.117198 -1.273795 10.512959 0.117205 -1.273795 10.512964 0.000001 -0.000001 -0.000001 0.117198 -1.273790 10.512959 0.117190 -1.273803 10.512952 -0.000004 0.000003 0.000000 0.000000 -0.000001 0.000001 0.000000 0.000002 -0.000002 0.000000 -0.000001 0.000002 -0.000000 0.000002 0.000001 0.000000 0.000003 -0.000000 -0.000000 0.000002 0.000001 -0.000000 0.000003 0.000002 -0.000000 0.000000 0.000000 -0.000000 0.000000 0.000000 -0.000000 0.000000 0.000000 -0.000000 0.000000 0.000000 -0.000000 0.000000 0.000000 -0.000000 0.000000 0.000000 -0.000000 0.000000 0.000000 0.000000 -0.000000 -0.000000 -0.000000 -0.000000 -0.000000 
